<?xml version="1.0" encoding="UTF-8" standalone="no"?>
<svg
   viewBox="0 0 181.32864 213.60023"
   version="1.1"
   id="svg86"
   sodipodi:docname="BIDS_black.svg"
   width="181.32864"
   height="213.60023"
   inkscape:version="1.2.2 (b0a8486541, 2022-12-01)"
   xmlns:inkscape="http://www.inkscape.org/namespaces/inkscape"
   xmlns:sodipodi="http://sodipodi.sourceforge.net/DTD/sodipodi-0.dtd"
   xmlns="http://www.w3.org/2000/svg"
   xmlns:svg="http://www.w3.org/2000/svg"
   xmlns:rdf="http://www.w3.org/1999/02/22-rdf-syntax-ns#"
   xmlns:cc="http://creativecommons.org/ns#"
   xmlns:dc="http://purl.org/dc/elements/1.1/">
  <sodipodi:namedview
     id="namedview88"
     pagecolor="#505050"
     bordercolor="#eeeeee"
     borderopacity="1"
     inkscape:showpageshadow="0"
     inkscape:pageopacity="0"
     inkscape:pagecheckerboard="0"
     inkscape:deskcolor="#505050"
     showgrid="false"
     inkscape:zoom="1.1048689"
     inkscape:cx="206.35933"
     inkscape:cy="107.25255"
     inkscape:window-width="2560"
     inkscape:window-height="1408"
     inkscape:window-x="0"
     inkscape:window-y="0"
     inkscape:window-maximized="1"
     inkscape:current-layer="svg86" />
  <defs
     id="defs4">
    <style
       id="style2">.cls-1{fill:#1a1a1a;}</style>
  </defs>
  <title
     id="title6">Ресурс 2</title>
  <g
     id="g510"
     transform="translate(0.00864173,2.3003701e-4)">
    <path
       class="cls-1"
       d="M 147.27,98.15 V 85.94 H 99 a 16.35,16.35 0 0 0 -1.1,-7.81 c -1.37,-3.24 -3.18,-7.09 -4.5,-9.81 2.73,-3.16 5.34,-7.95 4.88,-13.57 A 27.26,27.26 0 0 0 94.66,43.23 c 3,-5.72 8,-18.19 0.86,-29.78 C 89.66,3.91 80.08,1.16 74.9,0.38 67.77,-0.7 61.14,0.56 57.6,3.66 a 26.25,26.25 0 0 0 -5.39,6.5 C 46.34,9 38.3,9.74 32.72,17.42 a 22.13,22.13 0 0 0 -4,16.11 25.47,25.47 0 0 0 -15.91,22.06 28,28 0 0 0 1.49,12.77 C 6.77,74.8 -1.95,88 2,107 a 76.71,76.71 0 0 0 3.47,12.74 C 2.94,124 -1,132.1 0.22,140.52 c 1,6.71 4.89,12 7.48,14.9 -1,5.81 -2.09,18.51 6.18,27.49 6.82,7.37 16.23,8.61 22.51,8.46 2.54,7 9.24,20 24.54,21.85 a 54.14,54.14 0 0 0 6.06,0.38 c 16.88,0 27.45,-9.2 31.57,-17.82 a 45.94,45.94 0 0 0 4.15,-15.18 h 44.56 V 168.39 H 102.5 c -0.1,-0.69 -0.15,-1.35 -0.27,-2 -1.52,-9.6 -3.86,-15.09 -6.34,-18.1 a 66.62,66.62 0 0 0 2.51,-10 h 48.87 V 126 H 98.82 v -0.09 a 53.7,53.7 0 0 0 -6.34,-18.65 21.52,21.52 0 0 0 2.27,-9.13 z M 23.1,56.47 c 0.7,-8.19 5.77,-11.76 9.27,-13.26 5.62,0 12.41,16 21.17,13.26 C 48.22,52 44.78,48.14 39.65,35.11 c -0.09,-0.24 -2.46,-6.28 1.41,-11.62 3.39,-4.67 8.56,-3.52 10.71,-2.78 5.58,3.13 3,23.47 10.08,20.5 7.08,-2.97 17.58,-9 14.84,-15.34 C 73.6,26.22 67.08,38 62.11,33 57.94,28.83 58.89,21 60.11,17.38 a 16.41,16.41 0 0 1 4.25,-5.93 c 0.63,-0.49 4.15,-1.67 9.39,-0.78 3.32,0.57 9.37,2.38 12.94,8.19 5.84,9.53 -2.33,21.49 -2.4,21.59 a 5.23,5.23 0 0 0 0.3,6.34 16.9,16.9 0 0 1 3.41,8.78 c 0.33,4.18 -3.94,7.49 -4,7.49 -2.63,0.44 -5.68,-5.6 -5.68,-5.6 a 27.46,27.46 0 0 0 4.14,12.08 c 0,0 3.67,7.35 5.88,12.59 0.92,2.19 0.08,5.47 -1.39,8.4 a 0.2,0.2 0 0 1 0,-0.08 c -3.44,3.74 -8.61,4.6 -12.76,1.87 -4.15,-2.73 -3.81,-5.83 -5.83,-15.72 a 38.21,38.21 0 0 0 -1,-3.86 v 0 c 0,0 -2.79,-10.84 -1.36,-16 1,-3.53 3.39,-6.75 9.64,-6.18 -3.36,-5.85 -10.46,-4.76 -13.83,-0.24 -3,4.09 -2.92,10.21 -1.89,13.16 -7,-3.83 -12.06,1.94 -12.06,1.94 0,0 6.33,0.14 10.12,4.16 1.9,2 3,4.53 3.85,12 0.85,7.47 5.6,15.51 11.48,17.51 a 27.25,27.25 0 0 0 10.69,1.44 16,16 0 0 1 -1.81,4 5.23,5.23 0 0 0 0,5.8 43.79,43.79 0 0 1 6.3,17 c 0.86,6.5 -1.22,14 -2.59,18 -7.83,-1.29 -16.46,-11.92 -17.52,-19.37 A 12.54,12.54 0 0 0 67.29,122 h 0.14 c 4.87,-0.51 5.52,-14.13 5.52,-14.13 0,0 -6.55,11.54 -16.69,7.13 -5.75,-2.59 -7.18,-12.48 -7.75,-18.36 -0.55,-5.72 3.49,-13 3.71,-13.47 -0.38,0.23 -6.64,4.09 -8.59,7.29 -1.95,3.2 -5,4.18 -11.62,2.6 C 25.39,91.48 21.4,78.61 25.06,73.39 a 5.28,5.28 0 0 0 0.28,-0.48 3.54,3.54 0 0 0 0.27,-0.32 c 2.31,-1.76 12.12,3.12 18,-2.67 -13.62,0 -19.22,-4.35 -19.22,-4.35 -0.63,-1.12 -1.73,-3.94 -1.29,-9.1 z m 66.12,134.86 c -3.1,6.51 -12,13.47 -27,11.64 C 50.6,201.54 46.41,189.19 45.45,185.73 a 73.64,73.64 0 0 0 6.1,-8.35 114.87,114.87 0 0 1 -13.55,3.56 c -3.81,0.31 -11.69,0.23 -16.55,-5 C 17,171.08 17,163.76 17.57,159.27 c 6.25,2.22 12.54,1.84 17.89,-3.87 -6.23,0.19 -13.64,-1.28 -19.49,-6.27 -1.5,-1.52 -4.88,-5.37 -5.52,-10 -0.56,-3.9 0.89,-8.21 2.49,-11.49 2.65,5.58 10.86,10.21 17.36,14.31 7.26,4.59 17.35,5.56 17.77,11.75 0.94,13.28 -17.51,17.91 -17.51,17.91 6.46,-0.06 16.54,-1.52 19.65,-5.1 3.84,-0.38 10,1.44 14.8,5.08 5.92,4.5 9.08,14.44 9.08,14.44 1.62,-6.49 -2.87,-14.91 -5.73,-19.7 -2.86,-4.79 -3,-14.15 -3,-14.15 0,0 -4.31,6.12 -3.73,11.2 -1.51,-1.81 -5.34,-2.34 -8.23,-2.49 A 22.57,22.57 0 0 0 54.59,152 c -0.17,-2.62 -3.37,-5.73 -7.6,-8.7 6.49,-1.85 10.89,-12.4 4.87,-14.67 0,2 -3.37,10.67 -17.28,7.47 -0.8,-0.4 -1.56,-0.76 -2.28,-1.11 A 34.41,34.41 0 0 1 16.71,119.83 c -0.55,-1.22 -1,-2.36 -1.48,-3.58 -0.38,-0.82 -1.51,-3.62 -3.13,-11.4 -2.13,-10.28 0.46,-17.75 3.74,-22.74 -0.48,8.42 7.79,15.35 13.45,17.93 6.3,2.85 13.2,-1.59 13.62,2.15 0.42,3.74 2,4.72 0.57,8.89 -1.43,4.17 -10,6.16 -19.64,1.15 -0.29,9 21.22,9.6 24.52,5.73 1.16,3.74 9.33,3.74 13.07,6.75 3.74,3.01 4.87,16.34 9.31,19.94 4.44,3.6 13.78,7.6 18.65,13.34 0.14,0.15 0.25,0.28 0.36,0.42 A 51.81,51.81 0 0 1 92,168 c 1.43,8.66 0.48,16.51 -2.78,23.33 z"
       id="path66" />
    <polygon
       class="cls-1"
       points="172.16,85.21 172.16,75.44 181.32,85.18 181.32,85.21 "
       id="polygon68" />
    <polygon
       class="cls-1"
       points="169.03,88.34 181.32,88.34 181.32,106.07 155.47,106.07 155.47,75.44 169.03,75.44 "
       id="polygon70" />
    <polygon
       class="cls-1"
       points="172.16,127.13 172.16,117.35 181.32,127.09 181.32,127.13 "
       id="polygon72" />
    <polygon
       class="cls-1"
       points="169.03,130.25 181.32,130.25 181.32,147.99 155.47,147.99 155.47,117.35 169.03,117.35 "
       id="polygon74" />
    <polygon
       class="cls-1"
       points="172.16,169.28 172.16,159.5 181.32,169.24 181.32,169.28 "
       id="polygon76" />
    <polygon
       class="cls-1"
       points="169.03,172.4 181.32,172.4 181.32,190.13 155.47,190.13 155.47,159.5 169.03,159.5 "
       id="polygon78" />
    <path
       class="cls-1"
       d="m 142.7,29.61 h -14.88 l -0.61,-1.85 A 2.3,2.3 0 0 0 125,26.18 h -11.17 a 2.3,2.3 0 0 0 -2.19,1.6 l -0.59,1.83 h -1.83 a 3.65,3.65 0 0 0 -3.65,3.64 v 22.06 a 3.65,3.65 0 0 0 3.65,3.69 h 33.48 a 3.63,3.63 0 0 0 3.63,-3.64 V 33.25 a 3.63,3.63 0 0 0 -3.63,-3.64 z m -34.56,5.83 2.23,-3 h 31.13 l 1.65,3 z"
       id="path80" />
    <polygon
       class="cls-1"
       points="172.06,38.9 172.06,68.3 159.85,68.3 159.85,51.11 149.43,51.11 149.43,38.9 "
       id="polygon82" />
  </g>
  <metadata
     id="metadata512">
    <rdf:RDF>
      <cc:Work
         rdf:about="">
        <dc:title>Ресурс 2</dc:title>
      </cc:Work>
    </rdf:RDF>
  </metadata>
</svg>
